# xmcd database file
#
# Track frame offsets:
# 300
# 18108
# 32443
# 45638
# 67592
# 83642
# 101669
# 120812
# 142871
# 158990
# 172217
# 191699
# 207103
#
# Disc length: 2921 seconds
#
# Revision: 0
# Processed by: cddbd v1.5.2PL0 Copyright (c) Steve Scherf et al.
# Submitted via: CD-Runner 2004.05
#
DISCID=990b650d
DTITLE=Chris Upton Band - I Work Hard
DYEAR=2007
DGENRE=Blues
TTITLE0=I Work Hard
TTITLE1=Good Thing You're Coming
TTITLE2=Cyberblues Blues
TTITLE3=Reaching For The Floor
TTITLE4=Crying For The Moon
TTITLE5=And Ever......
TTITLE6=Where Did I Go Wrong?
TTITLE7=King For A Year
TTITLE8=Everybody's Got To Love Someone
TTITLE9=Calling In Some Favours
TTITLE10=Beggars Belief
TTITLE11=Something On Your Mind
TTITLE12=The Blues And More (2004)
EXTD=Purchased July 2007
EXTT0=
EXTT1=
EXTT2=
EXTT3=
EXTT4=
EXTT5=
EXTT6=
EXTT7=
EXTT8=
EXTT9=
EXTT10=
EXTT11=
EXTT12=
PLAYORDER=
